# xmcd
#
# Track frame offsets:
#	150
#	12746
#	26443
#	39572
#	53490
#	66129
#	80874
#	96691
#	109765
#	123407
#	139522
#	154101
#	172645
#	184743
#	199004
#	214188
#	227897
#	245465
#	260389
#	291946
#
# Disc length: 4153 seconds
#
# Revision: 0
# Processed by: cddbd v1.5.1PL0 Copyright (c) Steve Scherf et al.
# Submitted via: EasyCDDAExtractor 8.0.2.1
#
DISCID=1d103714
DTITLE=Various Artist - Motown:  The Classic Years [CD 2/2)
DYEAR=2000
DGENRE=Soul
TTITLE0=The Supremes - You Can't Hurry Love
TTITLE1=The Four Tops - Reach Out I'll Be There
TTITLE2=Martha and The Vandellas - Jimmy Mack
TTITLE3=Marvin Gaye and Tammi Terrell - Your Precious Love
TTITLE4=Gladys Knight And The Pips - I Heard It Through The Grapevine
TTITLE5=Marvin Gave - I Heard It Through The Grapevine
TTITLE6=David Ruffin - My Whole World Ended
TTITLE7=The Temptations - I Can't Get Next To You
TTITLE8=The Jackson 5 - I Want You Back
TTITLE9=Diana Ross and The Supremes - Someday We'll Be Together
TTITLE10=The Supremes - Up The Ladder To The Roof
TTITLE11=The Temptations - Ball Of Confusion
TTITLE12=Stevie Wonder - Signed, Sealed, Delivered I'm Yours
TTITLE13=The Spinners - It's A Shame
TTITLE14=Edwin Starr - War
TTITLE15=Smokey Robinson and The Miracles - The Tears Of A Clown
TTITLE16=Marvin Gaye - What's Going On
TTITLE17=The Undisputed Truth - Smiling Faces Sometimes
TTITLE18=The Temptations - Papa Was A Rolling Stone
TTITLE19=Gladys Knight And The Pips - Neither One Of Us
EXTD=YEAR: 2000\n
EXTT0=
EXTT1=
EXTT2=
EXTT3=
EXTT4=
EXTT5=
EXTT6=
EXTT7=
EXTT8=
EXTT9=
EXTT10=
EXTT11=
EXTT12=
EXTT13=
EXTT14=
EXTT15=
EXTT16=
EXTT17=
EXTT18=
EXTT19=
PLAYORDER=
